HIERARCHY
ROOT Hips
{
  OFFSET 0.0273292 -0.436096 0.279869
  CHANNELS 6 Xposition Yposition Zposition Zrotation Xrotation Yrotation
  JOINT LHipJoint
  {
    OFFSET 0 0 0
    CHANNELS 6 Xposition Yposition Zposition Zrotation Xrotation Yrotation
    JOINT LeftUpLeg
    {
      OFFSET 1.36306 -1.79463 0
      CHANNELS 6 Xposition Yposition Zposition Zrotation Xrotation Yrotation
      JOINT LeftLeg
      {
        OFFSET 2.44807 -6.72613 0.000295034
        CHANNELS 6 Xposition Yposition Zposition Zrotation Xrotation Yrotation
        JOINT LeftFoot
        {
          OFFSET 2.5622 -7.03959 3.59965e-05
          CHANNELS 6 Xposition Yposition Zposition Zrotation Xrotation Yrotation
          JOINT LeftToeBase
          {
            OFFSET 0.15764 -0.43311 2.32255
            CHANNELS 6 Xposition Yposition Zposition Zrotation Xrotation Yrotation
            End Site
            {
              OFFSET 0 0 0
            }
          }
        }
      }
    }
  }
  JOINT RHipJoint
  {
    OFFSET 0 0 0
    CHANNELS 6 Xposition Yposition Zposition Zrotation Xrotation Yrotation
    JOINT RightUpLeg
    {
      OFFSET -1.30552 -1.79463 0
      CHANNELS 6 Xposition Yposition Zposition Zrotation Xrotation Yrotation
      JOINT RightLeg
      {
        OFFSET -2.54234 -6.98562 -0.000396375
        CHANNELS 6 Xposition Yposition Zposition Zrotation Xrotation Yrotation
        JOINT RightFoot
        {
          OFFSET -2.56826 -7.05623 -4.47982e-05
          CHANNELS 6 Xposition Yposition Zposition Zrotation Xrotation Yrotation
          JOINT RightToeBase
          {
            OFFSET -0.16473 -0.45259 2.36315
            CHANNELS 6 Xposition Yposition Zposition Zrotation Xrotation Yrotation
            End Site
            {
              OFFSET 0 0 0
            }
          }
        }
      }
    }
  }
  JOINT LowerBack
  {
    OFFSET 0 0 0
    CHANNELS 6 Xposition Yposition Zposition Zrotation Xrotation Yrotation
    JOINT Spine
    {
      OFFSET 0.0282699 2.03559 0
      CHANNELS 6 Xposition Yposition Zposition Zrotation Xrotation Yrotation
      JOINT Spine1
      {
        OFFSET 0.05672 2.04885 -0.04275
        CHANNELS 6 Xposition Yposition Zposition Zrotation Xrotation Yrotation
        JOINT Neck
        {
          OFFSET 0 0 0
          CHANNELS 6 Xposition Yposition Zposition Zrotation Xrotation Yrotation
          JOINT Neck1
          {
            OFFSET -0.05417 1.74624 0.17202
            CHANNELS 6 Xposition Yposition Zposition Zrotation Xrotation Yrotation
            JOINT Head
            {
              OFFSET 0.10407 1.76136 -0.12397
              CHANNELS 6 Xposition Yposition Zposition Zrotation Xrotation Yrotation
              End Site
              {
                OFFSET 0 0 0
              }
            }
          }
        }
        JOINT LeftShoulder
        {
          OFFSET 0 0 0
          CHANNELS 6 Xposition Yposition Zposition Zrotation Xrotation Yrotation
          JOINT LeftArm
          {
            OFFSET 3.36241 1.20089 -0.311211
            CHANNELS 6 Xposition Yposition Zposition Zrotation Xrotation Yrotation
            JOINT LeftForeArm
            {
              OFFSET 4.983 0.000197398 0.000166057
              CHANNELS 6 Xposition Yposition Zposition Zrotation Xrotation Yrotation
              JOINT LeftHand
              {
                OFFSET 3.48356 0 1.87849e-05
                CHANNELS 6 Xposition Yposition Zposition Zrotation Xrotation Yrotation
                JOINT LeftFingerBase
                {
                  OFFSET 0 0 0
                  CHANNELS 6 Xposition Yposition Zposition Zrotation Xrotation Yrotation
                  JOINT LeftHandIndex1
                  {
                    OFFSET 0.71526 0 0
                    CHANNELS 6 Xposition Yposition Zposition Zrotation Xrotation Yrotation
                    End Site
                    {
                      OFFSET 0 0 0
                    }
                  }
                }
                JOINT LThumb
                {
                  OFFSET 0 0 0
                  CHANNELS 6 Xposition Yposition Zposition Zrotation Xrotation Yrotation
                  End Site
                  {
                    OFFSET 0 0 0
                  }
                }
              }
            }
          }
        }
        JOINT RightShoulder
        {
          OFFSET 0 0 0
          CHANNELS 6 Xposition Yposition Zposition Zrotation Xrotation Yrotation
          JOINT RightArm
          {
            OFFSET -3.1366 1.37405 -0.404651
            CHANNELS 6 Xposition Yposition Zposition Zrotation Xrotation Yrotation
            JOINT RightForeArm
            {
              OFFSET -5.2419 -5.8808e-05 -0.000165864
              CHANNELS 6 Xposition Yposition Zposition Zrotation Xrotation Yrotation
              JOINT RightHand
              {
                OFFSET -3.44417 0 -2.00002e-05
                CHANNELS 6 Xposition Yposition Zposition Zrotation Xrotation Yrotation
                JOINT RightFingerBase
                {
                  OFFSET 0 0 0
                  CHANNELS 6 Xposition Yposition Zposition Zrotation Xrotation Yrotation
                  JOINT RightHandIndex1
                  {
                    OFFSET -0.62253 0 0
                    CHANNELS 6 Xposition Yposition Zposition Zrotation Xrotation Yrotation
                    End Site
                    {
                      OFFSET 0 0 0
                    }
                  }
                }
                JOINT RThumb
                {
                  OFFSET 0 0 0
                  CHANNELS 6 Xposition Yposition Zposition Zrotation Xrotation Yrotation
                  End Site
                  {
                    OFFSET 0 0 0
                  }
                }
              }
            }
          }
        }
      }
    }
  }
}
MOTION
Frames:	7
Frame Time:	0.00833333
-0.0741589 2.09601 -0.0580393 0.788545 -2.32954 2.03165 0 0 0 3.72721e-17 7.95139e-16 7.95139e-16 1.36306 -1.79463 2.34536e-08 -12.7122 -3.37876 9.7865 2.4481 -6.72614 -6.20344e-05 -0.451137 9.17616 -1.56173 2.5622 -7.03959 -1.63151e-05 -6.62046 -4.71232 -1.74136 0.15764 -0.43311 2.32255 9.93923e-16 0 -0 0 0 0 3.72721e-17 7.95139e-16 7.95139e-16 -1.30552 -1.79463 -1.52547e-08 17.8604 -12.6079 -8.30178 -2.54245 -6.98559 0.000473882 2.47718 25.8083 -8.454 -2.56826 -7.05622 4.55407e-05 -0.859263 -14.6999 5.11566 -0.16473 -0.45259 2.36315 2.73329e-15 0 1.59028e-15 0 0 0 3.72721e-17 7.95139e-16 7.95139e-16 0.02827 2.03559 3.46244e-08 0.674896 3.3384 0.556136 0.05672 2.04885 -0.04275 -3.10601e-17 -1.98785e-16 -7.95139e-16 0 0 0 1.86361e-16 -3.97569e-16 -7.95139e-16 -0.05417 1.74624 0.17202 0.0766214 1.54577 -0.278599 0.10407 1.76136 -0.12397 -1.98785e-16 -7.95139e-16 -0 0 0 0 1.86361e-16 -3.97569e-16 -7.95139e-16 3.36241 1.20089 -0.31121 -81.8919 5.67408 -0.902523 4.983 0.00019132 0.000172723 1.00107 0.292909 -10.1396 3.48356 4.28674e-06 -1.06966e-05 7.8776e-05 -7.95139e-16 0.000174167 0 0 0 -9.93923e-16 3.97569e-16 3.18055e-15 0.71526 -8.88178e-16 0 -2.68359e-15 3.97569e-16 1.59028e-15 0 0 0 -9.93923e-16 3.97569e-16 3.18055e-15 0 0 0 1.86361e-16 -3.97569e-16 -7.95139e-16 -3.1366 1.37406 -0.404651 82.6588 23.9959 0.599776 -5.2419 0.000237057 0.000110666 -0.9999 0.28569 9.80339 -3.44417 4.89083e-06 -9.35134e-06 -9.53186e-05 3.18055e-15 -0.000157832 0 0 0 -7.95139e-16 0 -1.59028e-15 -0.62253 0 0 -7.95139e-16 0 -0 0 0 0 -7.95139e-16 0 -1.59028e-15 
-0.0740189 2.09461 -0.0581286 0.791872 -2.3306 2.03156 0 0 0 1.98785e-16 0 7.95139e-16 1.36306 -1.79463 2.34536e-08 -12.5936 -3.57535 9.87153 2.4481 -6.72614 -6.20344e-05 -0.454384 9.53963 -1.49623 2.5622 -7.03959 -1.63151e-05 -6.70052 -4.86301 -1.80348 0.15764 -0.43311 2.32255 -7.45443e-16 0 -1.59028e-15 0 0 0 1.98785e-16 0 7.95139e-16 -1.30552 -1.79463 -1.52547e-08 17.8089 -12.7735 -8.42785 -2.54245 -6.98559 0.000473882 2.52292 26.0938 -8.54995 -2.56826 -7.05622 4.55407e-05 -0.876145 -14.838 5.16406 -0.16473 -0.45259 2.36315 6.4605e-16 -3.97569e-16 -1.59028e-15 0 0 0 1.98785e-16 0 7.95139e-16 0.02827 2.03559 3.46244e-08 0.685558 3.38371 0.55795 0.05672 2.04885 -0.04275 -4.78326e-16 0 -7.95139e-16 0 0 0 -7.45443e-17 1.98785e-16 -7.95139e-16 -0.05417 1.74624 0.17202 0.0779482 1.56858 -0.282946 0.10407 1.76136 -0.12397 4.09993e-16 -3.97569e-16 -0 0 0 0 -7.45443e-17 1.98785e-16 -7.95139e-16 3.36241 1.20089 -0.31121 -83.1096 5.76064 -0.918051 4.983 0.00019132 0.000172723 1.01365 0.297225 -10.2805 3.48356 4.28674e-06 -1.06966e-05 -0.00315805 -0.00119944 0.00359954 0 0 0 -9.93923e-17 -3.97569e-16 1.59028e-15 0.71526 8.88178e-16 1.11022e-16 -1.98785e-16 -3.97569e-16 -0 0 0 0 -9.93923e-17 -3.97569e-16 1.59028e-15 0 0 0 -7.45443e-17 1.98785e-16 -7.95139e-16 -3.1366 1.37406 -0.404651 83.8722 24.3401 0.613839 -5.2419 0.000237057 0.000110666 -1.01256 0.289923 9.94071 -3.44417 4.89083e-06 -9.35134e-06 -0.00568939 0.0013619 0.000231437 0 0 0 0 0 -0 -0.62253 0 2.22045e-16 -7.95139e-16 3.18055e-15 -0 0 0 0 0 0 -0 
-0.0736441 2.09152 -0.0583252 0.799654 -2.33295 2.03086 0 0 0 2.11209e-16 0 -0 1.36306 -1.79463 2.34536e-08 -12.3307 -4.00745 10.0592 2.4481 -6.72614 -6.20344e-05 -0.464497 10.3393 -1.35183 2.5622 -7.03959 -1.63151e-05 -6.87781 -5.19448 -1.94031 0.15764 -0.43311 2.32255 2.03754e-15 -7.95139e-16 -1.59028e-15 0 0 0 2.11209e-16 0 -0 -1.30552 -1.79463 -1.52547e-08 17.6928 -13.1374 -8.70605 -2.54245 -6.98559 0.000473882 2.62732 26.7212 -8.76345 -2.56826 -7.05622 4.55407e-05 -0.912431 -15.1419 5.27086 -0.16473 -0.45259 2.36315 -1.2921e-15 0 -0 0 0 0 2.11209e-16 0 -0 0.02827 2.03559 3.46244e-08 0.709519 3.48338 0.561941 0.05672 2.04885 -0.04275 7.45443e-17 0 -0 0 0 0 5.59082e-17 0 -3.97569e-16 -0.05417 1.74624 0.17202 0.080944 1.61877 -0.292989 0.10407 1.76136 -0.12397 -1.49089e-16 -3.97569e-16 -7.95139e-16 0 0 0 5.59082e-17 0 -3.97569e-16 3.36241 1.20089 -0.31121 -85.7883 5.95106 -0.954268 4.983 0.00019132 0.000172723 1.04141 0.306699 -10.5904 3.48356 4.28674e-06 -1.06966e-05 -0.011053 -0.00412713 0.011948 0 0 0 -1.88845e-15 0 -0 0.71526 -4.44089e-16 -1.66533e-16 -2.98177e-16 0 -1.59028e-15 0 0 0 -1.88845e-15 0 -0 0 0 0 5.59082e-17 0 -3.97569e-16 -3.1366 1.37406 -0.404651 86.5404 25.0973 0.646385 -5.2419 0.000237057 0.000110666 -1.04049 0.299215 10.2428 -3.44417 4.89083e-06 -9.35134e-06 -0.0193205 0.00466482 0.00118261 0 0 0 7.95139e-16 -3.18055e-15 -3.18055e-15 -0.62253 -4.44089e-16 0 -0 -3.18055e-15 -0 0 0 0 7.95139e-16 -3.18055e-15 -3.18055e-15 
-0.0731018 2.08844 -0.0585218 0.808598 -2.3353 2.02896 0 0 0 -8.69683e-17 0 -7.95139e-16 1.36306 -1.79463 2.34536e-08 -12.0649 -4.43902 10.2476 2.4481 -6.72614 -6.20344e-05 -0.478712 11.139 -1.20695 2.5622 -7.03959 -1.63151e-05 -7.05668 -5.52586 -2.07734 0.15764 -0.43311 2.32255 1.49089e-15 3.97569e-16 -1.59028e-15 0 0 0 -8.69683e-17 0 -7.95139e-16 -1.30552 -1.79463 -1.52547e-08 17.573 -13.5004 -8.98544 -2.54245 -6.98559 0.000473882 2.73702 27.3478 -8.98039 -2.56826 -7.05622 4.55407e-05 -0.947537 -15.4455 5.37812 -0.16473 -0.45259 2.36315 -4.96962e-15 -7.95139e-16 1.59028e-15 0 0 0 -8.69683e-17 0 -7.95139e-16 0.02827 2.03559 3.46244e-08 0.734753 3.58306 0.565935 0.05672 2.04885 -0.04275 -2.48481e-17 1.98785e-16 -7.95139e-16 0 0 0 -1.2424e-17 3.97569e-16 -7.95139e-16 -0.05417 1.74624 0.17202 0.0841205 1.66895 -0.304233 0.10407 1.76136 -0.12397 -1.98785e-16 0 -7.95139e-16 0 0 0 -1.2424e-17 3.97569e-16 -7.95139e-16 3.36241 1.20089 -0.31121 -88.4663 6.14146 -0.9956 4.983 0.00019132 0.000172723 1.06927 0.316143 -10.9003 3.48356 4.28674e-06 -1.06966e-05 -0.0208828 -0.0077771 0.0223283 0 0 0 3.97569e-16 -7.95139e-16 -0 0.71526 -4.44089e-16 -1.11022e-16 -7.95139e-16 -1.59028e-15 -0 0 0 0 3.97569e-16 -7.95139e-16 -0 0 0 0 -1.2424e-17 3.97569e-16 -7.95139e-16 -3.1366 1.37406 -0.404651 89.2063 25.8544 0.682611 -5.2419 0.000237057 0.000110666 -1.06852 0.30848 10.5449 -3.44417 4.89083e-06 -9.35134e-06 -0.0362619 0.00873454 0.00237074 0 0 0 -7.95139e-16 0 1.59028e-15 -0.62253 -4.44089e-16 0 -7.95139e-16 0 -1.59028e-15 0 0 0 -7.95139e-16 0 1.59028e-15 
-0.0724594 2.08703 -0.0586111 0.815407 -2.33638 2.02526 0 0 0 5.51738e-33 -3.97569e-16 7.95139e-16 1.36306 -1.79463 2.34536e-08 -11.9432 -4.63501 10.3335 2.4481 -6.72614 -6.20344e-05 -0.486537 11.5025 -1.14092 2.5622 -7.03959 -1.63151e-05 -7.13852 -5.67646 -2.1397 0.15764 -0.43311 2.32255 -3.97569e-16 3.97569e-16 -1.59028e-15 0 0 0 5.51738e-33 -3.97569e-16 7.95139e-16 -1.30552 -1.79463 -1.52547e-08 17.5173 -13.6651 -9.11283 -2.54245 -6.98559 0.000473882 2.78866 27.6323 -9.08016 -2.56826 -7.05622 4.55407e-05 -0.963103 -15.5835 5.42702 -0.16473 -0.45259 2.36315 -1.39149e-15 3.97569e-16 1.59028e-15 0 0 0 5.51738e-33 -3.97569e-16 7.95139e-16 0.02827 2.03559 3.46244e-08 0.749261 3.62837 0.567751 0.05672 2.04885 -0.04275 -1.73937e-16 0 7.95139e-16 0 0 0 -1.73937e-16 0 7.95139e-16 -0.05417 1.74624 0.17202 0.0859574 1.69176 -0.31218 0.10407 1.76136 -0.12397 2.98177e-16 3.97569e-16 -0 0 0 0 -1.73937e-16 0 7.95139e-16 3.36241 1.20089 -0.31121 -89.6821 6.22799 -1.02641 4.983 0.00019132 0.000172723 1.08197 0.320427 -11.0412 3.48356 4.28674e-06 -1.06966e-05 -0.0299255 -0.0111434 0.0318488 0 0 0 1.98785e-16 0 1.59028e-15 0.71526 0 5.55112e-17 2.98177e-16 1.59028e-15 1.59028e-15 0 0 0 1.98785e-16 0 1.59028e-15 0 0 0 -1.73937e-16 0 7.95139e-16 -3.1366 1.37406 -0.404651 90.4144 26.1985 0.706765 -5.2419 0.000237057 0.000110666 -1.08129 0.312683 10.6823 -3.44417 4.89083e-06 -9.35134e-06 -0.0517868 0.0123969 0.00347086 0 0 0 -7.95139e-16 0 -3.18055e-15 -0.62253 0 -2.22045e-16 -7.95139e-16 -3.18055e-15 -1.59028e-15 0 0 0 -7.95139e-16 0 -3.18055e-15 
-0.0716851 2.08714 -0.0585702 0.818677 -2.33056 2.01602 0 0 0 -3.47873e-16 -1.19271e-15 7.95139e-16 1.36306 -1.79463 2.34536e-08 -11.9565 -4.62626 10.325 2.4481 -6.72614 -6.20344e-05 -0.486157 11.4813 -1.14108 2.5622 -7.03959 -1.63151e-05 -7.13054 -5.66901 -2.13619 0.15764 -0.43311 2.32255 -5.36719e-15 -3.97569e-16 -1.59028e-15 0 0 0 -3.47873e-16 -1.19271e-15 7.95139e-16 -1.30552 -1.79463 -1.52547e-08 17.5169 -13.6577 -9.10266 -2.54245 -6.98559 0.000473882 2.78575 27.6154 -9.07004 -2.56826 -7.05622 4.55407e-05 -0.961399 -15.5734 5.42354 -0.16473 -0.45259 2.36315 9.93923e-16 -1.19271e-15 -4.77083e-15 0 0 0 -3.47873e-16 -1.19271e-15 7.95139e-16 0.02827 2.03559 3.46244e-08 0.753655 3.62374 0.561736 0.05672 2.04885 -0.04275 1.49089e-16 -1.98785e-16 7.95139e-16 0 0 0 1.36664e-16 0 7.95139e-16 -0.05417 1.74624 0.17202 0.0864582 1.69116 -0.31588 0.10407 1.76136 -0.12397 -1.73937e-16 0 3.97569e-16 0 0 0 1.36664e-16 0 7.95139e-16 3.36241 1.20089 -0.31121 -89.5924 6.22738 -1.04279 4.983 0.00019132 0.000172723 1.08106 0.320085 -11.0298 3.48356 4.28674e-06 -1.06966e-05 -0.037823 -0.0141089 0.0400861 0 0 0 -4.96962e-16 -7.95139e-16 3.18055e-15 0.71526 4.44089e-16 0 4.41391e-32 -7.95139e-16 3.18055e-15 0 0 0 -4.96962e-16 -7.95139e-16 3.18055e-15 0 0 0 1.36664e-16 0 7.95139e-16 -3.1366 1.37406 -0.404651 90.3153 26.1815 0.716437 -5.2419 0.000237057 0.000110666 -1.08038 0.312367 10.6722 -3.44417 4.89083e-06 -9.35134e-06 -0.0651771 0.0153537 0.00444846 0 0 0 -0 -3.18055e-15 -0 -0.62253 0 0 -1.76556e-31 6.36111e-15 1.59028e-15 0 0 0 -0 -3.18055e-15 -0 
-0.0707596 2.08746 -0.0584802 0.820149 -2.3169 2.00086 0 0 0 4.96962e-17 -3.97569e-16 -0 1.36306 -1.79463 2.34536e-08 -11.9947 -4.59555 10.3008 2.4481 -6.72614 -6.20344e-05 -0.485199 11.4118 -1.14248 2.5622 -7.03959 -1.63151e-05 -7.10739 -5.64348 -2.12457 0.15764 -0.43311 2.32255 -1.49089e-15 7.95139e-16 -0 0 0 0 4.96962e-17 -3.97569e-16 -0 -1.30552 -1.79463 -1.52547e-08 17.5183 -13.6323 -9.07212 -2.54245 -6.98559 0.000473882 2.77636 27.5616 -9.04081 -2.56826 -7.05622 4.55407e-05 -0.95649 -15.5425 5.41287 -0.16473 -0.45259 2.36315 1.68967e-15 -3.97569e-16 -1.59028e-15 0 0 0 4.96962e-17 -3.97569e-16 -0 0.02827 2.03559 3.46244e-08 0.756769 3.61031 0.546735 0.05672 2.04885 -0.04275 1.11816e-16 0 -0 0 0 0 1.2424e-16 0 3.97569e-16 -0.05417 1.74624 0.17202 0.0867036 1.68874 -0.31778 0.10407 1.76136 -0.12397 -1.73937e-16 -7.95139e-16 -3.97569e-16 0 0 0 1.2424e-16 0 3.97569e-16 3.36241 1.20089 -0.31121 -89.3224 6.22331 -1.05308 4.983 0.00019132 0.000172723 1.07828 0.31906 -10.9957 3.48356 4.28674e-06 -1.06966e-05 -0.0459043 -0.0171596 0.0484666 0 0 0 -1.98785e-16 1.59028e-15 3.18055e-15 0.71526 4.44089e-16 -5.55112e-17 3.97569e-16 7.95139e-16 1.59028e-15 0 0 0 -1.98785e-16 1.59028e-15 3.18055e-15 0 0 0 1.2424e-16 0 3.97569e-16 -3.1366 1.37406 -0.404651 90.0274 26.1252 0.721109 -5.2419 0.000237057 0.000110666 -1.07759 0.311411 10.6415 -3.44417 4.89083e-06 -9.35134e-06 -0.0787728 0.0182263 0.00545947 0 0 0 -1.59028e-15 0 -1.59028e-15 -0.62253 -8.88178e-16 4.44089e-16 -7.95139e-16 0 -1.59028e-15 0 0 0 -1.59028e-15 0 -1.59028e-15 
